<svg width="70" height="69" viewBox="0 0 70 69" fill="none" xmlns="http://www.w3.org/2000/svg">
<path d="M9.42943 40.6782C4.97523 42.1254 0.155528 39.4257 0.141394 34.7423C0.129388 30.764 0.738681 26.7162 2.035 22.7265C3.22286 19.0707 4.90583 15.714 6.98556 12.7067C9.68782 8.79922 15.2754 9.39427 18.0679 13.2378L26.075 24.259C29.2696 28.656 27.2438 34.8903 22.0748 36.5697L9.42943 40.6782Z" fill="#D9D9D9"/>
<path d="M9.42943 40.6782C4.97523 42.1254 0.155528 39.4257 0.141394 34.7423C0.129388 30.764 0.738681 26.7162 2.035 22.7265C3.22286 19.0707 4.90583 15.714 6.98556 12.7067C9.68782 8.79922 15.2754 9.39427 18.0679 13.2378L26.075 24.259C29.2696 28.656 27.2438 34.8903 22.0748 36.5697L9.42943 40.6782Z" fill="#69E974"/>
<path d="M32.731 59.8947C32.7309 64.5781 28.674 68.3277 24.2154 66.8939C20.4281 65.676 16.7667 63.8456 13.3729 61.3799C10.263 59.1204 7.59073 56.4826 5.37329 53.5753C2.49208 49.7979 4.78467 44.6676 9.30303 43.1996L22.2591 38.99C27.4281 37.3106 32.7313 41.1637 32.7312 46.5987L32.731 59.8947Z" fill="#D9D9D9"/>
<path d="M32.731 59.8947C32.7309 64.5781 28.674 68.3277 24.2154 66.8939C20.4281 65.676 16.7667 63.8456 13.3729 61.3799C10.263 59.1204 7.59073 56.4826 5.37329 53.5753C2.49208 49.7979 4.78467 44.6676 9.30303 43.1996L22.2591 38.99C27.4281 37.3106 32.7313 41.1637 32.7312 46.5987L32.731 59.8947Z" fill="#69E974"/>
<path d="M57.7549 43.2545C62.209 44.7018 64.5214 49.7188 61.7801 53.5161C59.4514 56.7416 56.5792 59.6583 53.1854 62.124C50.0755 64.3835 46.741 66.1098 43.2908 67.3203C38.8079 68.8932 34.6372 65.1275 34.6372 60.3766L34.6374 46.7538C34.6374 41.3189 39.9407 37.4659 45.1096 39.1455L57.7549 43.2545Z" fill="#D9D9D9"/>
<path d="M57.7549 43.2545C62.209 44.7018 64.5214 49.7188 61.7801 53.5161C59.4514 56.7416 56.5792 59.6583 53.1854 62.124C50.0755 64.3835 46.741 66.1098 43.2908 67.3203C38.8079 68.8932 34.6372 65.1275 34.6372 60.3766L34.6374 46.7538C34.6374 41.3189 39.9407 37.4659 45.1096 39.1455L57.7549 43.2545Z" fill="#69E974"/>
<path d="M50.6495 14.4286C53.4024 10.6397 58.8884 9.99087 61.6527 13.7715C64.0008 16.983 65.8871 20.6159 67.1834 24.6055C68.3713 28.2614 68.9827 31.9662 69.0678 35.6216C69.1784 40.3712 64.3082 43.1741 59.7899 41.7059L46.8339 37.4961C41.6649 35.8165 39.6394 29.5822 42.834 25.1853L50.6495 14.4286Z" fill="#D9D9D9"/>
<path d="M50.6495 14.4286C53.4024 10.6397 58.8884 9.99087 61.6527 13.7715C64.0008 16.983 65.8871 20.6159 67.1834 24.6055C68.3713 28.2614 68.9827 31.9662 69.0678 35.6216C69.1784 40.3712 64.3082 43.1741 59.7899 41.7059L46.8339 37.4961C41.6649 35.8165 39.6394 29.5822 42.834 25.1853L50.6495 14.4286Z" fill="#69E974"/>
<path d="M20.5055 12.5799C17.7528 8.7909 18.8309 3.37285 23.2807 1.91216C27.0606 0.671378 31.0986 -3.66736e-07 35.2936 0C39.1376 3.36053e-07 42.85 0.563336 46.3528 1.61197C50.9041 2.97449 52.0648 8.47249 49.2723 12.316L41.2649 23.337C38.0703 27.7339 31.5151 27.7338 28.3206 23.3368L20.5055 12.5799Z" fill="#69E974"/>
</svg>
