<svg width="190" height="338" viewBox="0 0 190 338" fill="none" xmlns="http://www.w3.org/2000/svg">
<g filter="url(#filter0_d_312_35)">
<path d="M154.885 312.552C153.165 313.853 151.446 315.155 149.432 316.538C149.412 316.551 149.391 316.563 149.369 316.572C148.915 316.761 148.68 316.89 148.471 317.011C148.446 317.025 148.358 317.085 148.331 317.095V317.095C148.328 317.097 148.313 317.103 148.311 317.105C148.147 317.242 148.051 317.355 147.97 317.462C147.937 317.505 147.884 317.558 147.83 317.557V317.557C147.819 317.557 147.775 317.558 147.766 317.562C147.431 317.699 147.207 317.84 146.998 317.981C146.953 318.011 146.879 318.06 146.825 318.063V318.063C146.816 318.063 146.779 318.066 146.771 318.07C146.439 318.21 146.213 318.348 146.001 318.485C145.957 318.513 145.877 318.563 145.825 318.567V318.567C145.817 318.567 145.783 318.57 145.776 318.574C145.44 318.717 145.21 318.855 144.995 318.993C144.958 319.017 144.865 319.069 144.821 319.073V319.073C144.816 319.074 144.791 319.077 144.786 319.079C144.447 319.225 144.213 319.361 143.993 319.497C143.957 319.519 143.866 319.57 143.824 319.573V319.573C143.818 319.574 143.794 319.577 143.789 319.579C143.45 319.723 143.216 319.86 142.996 319.996C142.962 320.017 142.863 320.063 142.823 320.064V320.064C142.817 320.064 142.791 320.066 142.785 320.068C142.445 320.209 142.214 320.348 141.997 320.487C141.955 320.514 141.875 320.565 141.825 320.57V320.57C141.818 320.57 141.787 320.574 141.781 320.577C141.447 320.719 141.218 320.854 141.002 320.989C140.963 321.014 140.872 321.061 140.825 321.063V321.063C140.818 321.063 140.787 321.065 140.781 321.068C140.456 321.203 140.233 321.336 140.026 321.469C139.97 321.505 139.873 321.561 139.807 321.564V321.564C139.797 321.564 139.758 321.566 139.749 321.569C139.345 321.706 139.062 321.842 138.797 321.977C138.757 321.998 138.571 322.054 138.526 322.055V322.055C138.522 322.055 138.502 322.057 138.498 322.058C138.075 322.204 137.793 322.345 137.528 322.486C137.479 322.512 137.367 322.558 137.312 322.556V322.556C137.305 322.556 137.274 322.556 137.267 322.558C136.77 322.698 136.397 322.844 136.039 322.99C136.004 323.004 135.805 323.058 135.768 323.061V323.061C135.765 323.061 135.751 323.062 135.748 323.063C133.83 323.706 132.086 324.337 130.348 324.968C130.255 325.002 130.091 325.007 129.992 325.013V325.013C129.982 325.013 129.947 325.017 129.938 325.02C129.363 325.186 128.949 325.339 128.553 325.491C128.509 325.508 128.335 325.55 128.288 325.549V325.549C128.283 325.549 128.261 325.549 128.257 325.55C127.082 325.857 126.074 326.171 125.075 326.485C125.013 326.504 124.831 326.549 124.765 326.547V326.547C124.761 326.546 124.741 326.546 124.737 326.547C117.004 327.562 109.474 328.587 101.71 329.603C96.9097 329.624 92.2857 329.65 87.6844 329.678C86.3336 329.686 84.9847 329.575 83.6533 329.347C78.2349 328.419 72.8154 327.497 67.4014 326.544C66.2582 326.343 65.1573 325.88 64.0114 325.718C57.3014 324.768 51.3033 321.797 45.552 318.571C38.7031 314.73 32.3312 310.194 26.6775 304.515C20.839 298.65 15.8688 292.321 12.3925 284.888C10.3598 280.542 8.92362 275.917 7.13268 271.076C6.90204 270.261 6.74305 269.727 6.59047 269.22C6.571 269.155 6.52868 269.006 6.52761 268.939V268.939C6.52751 268.933 6.5267 268.909 6.52546 268.903C6.38225 268.235 6.23971 267.713 6.09723 267.205C6.08003 267.143 6.04299 266.989 6.04832 266.925V266.925C6.04883 266.919 6.05051 266.893 6.04964 266.887C5.90572 265.888 5.74619 265.052 5.58563 264.226C5.57577 264.176 5.54566 263.94 5.54871 263.889V263.889C5.54887 263.886 5.54943 263.873 5.54916 263.871C5.20376 260.305 4.84507 256.954 4.5 253.369C4.509 250.455 4.50435 247.774 4.55832 244.899C5.43591 238.99 6.25492 233.277 7.07392 227.563V227.563C7.07392 227.563 7.20238 227.124 7.25826 226.903C7.7544 224.938 8.17236 223.162 8.59031 221.385C10.1493 217.199 11.4045 212.866 13.3314 208.857C17.1693 200.872 21.1478 192.935 25.4926 185.217C30.2249 176.811 35.2334 168.531 38.105 159.285C39.9813 153.244 41.2711 146.989 42.3762 140.751C43.2573 135.777 43.4621 130.684 44.1145 125.245C44.3298 122.771 44.4351 120.696 44.4589 118.62C44.5477 110.887 44.612 103.154 44.6844 95.4204C44.689 94.9338 44.8402 94.4402 44.8891 93.956V93.956C44.9165 93.5963 44.9426 93.2557 44.9677 92.9297C45.1088 91.1008 45.483 89.2991 45.9846 87.5347C47.1416 83.4643 48.0883 79.2753 50.1064 75.6897C57.8757 61.8859 66.5278 54.4406 83.3791 54.9959C83.4584 54.9985 83.538 55.0073 83.616 55.022C84.6951 55.2255 85.8633 55.4006 87.0834 55.5574C88.6197 55.7549 95.6601 55.0032 97.1761 54.6859V54.6859C97.8396 54.5471 96.8253 54.6888 96.6257 55.3366C95.5211 58.9218 97.1725 74.1005 95.1304 73.7425C95.063 73.7307 95.0343 73.7253 94.9941 73.6698V73.6698C94.9663 73.6314 94.8885 73.5603 94.866 73.6022C94.5343 74.2187 94.2709 82.1766 94.0118 83.1153C93.9975 83.1669 93.9337 83.2007 93.8978 83.161V83.161C93.892 83.1546 93.8682 83.1291 93.8607 83.1247C93.5627 82.9484 93.3273 82.8464 93.1012 82.7554C93.0448 82.7327 92.9674 82.688 92.9366 82.6356V82.6356C92.929 82.6228 92.8991 82.5786 92.8863 82.5711C92.5771 82.3896 92.324 82.3064 92.0782 82.2357C92.0244 82.2202 91.9532 82.2002 91.9217 82.154V82.154C91.9143 82.1432 91.8848 82.103 91.8735 82.0963C91.571 81.9176 91.3239 81.8268 91.0849 81.749C91.0292 81.7309 90.9328 81.6943 90.8951 81.6493V81.6493C90.8879 81.6408 90.8606 81.6099 90.8522 81.6026C90.414 81.22 90.0775 71.291 89.7411 71.198C88.6257 70.7605 86.3329 61.8698 84.9502 61.2415C84.4451 60.9856 84.1508 60.8802 83.8802 60.7916C83.839 60.7782 83.7533 60.7435 83.7266 60.7094V60.7094C83.7225 60.7042 83.7032 60.6811 83.6975 60.6777C83.3829 60.4912 83.1319 60.3886 82.8894 60.2973C82.8485 60.2819 82.7432 60.2369 82.713 60.2053V60.2053C82.7081 60.2002 82.6852 60.178 82.6787 60.1753C82.1876 59.9743 81.7874 59.8716 81.394 59.7762C81.3462 59.7646 81.2937 59.7466 81.2836 59.6984V59.6984C81.2814 59.6876 81.2703 59.6444 81.2638 59.6355C81.1853 59.529 81.1121 59.4497 81.0417 59.3851C80.8946 59.25 80.8074 59.097 80.8769 58.9098C80.9001 58.8474 80.9271 58.7776 80.9562 58.7029C81.2817 57.8648 81.5428 56.8558 81.764 55.9843C83.0351 50.9762 80.7997 41.1961 80.4815 38.7621C80.4749 38.6849 80.4683 38.6076 80.4621 38.3496C80.4582 38.1911 80.444 38.0327 80.4172 37.8764C79.9512 35.1536 79.4846 32.7493 79.018 30.3509C79.0084 30.3013 78.968 30.1553 78.9651 30.1049V30.1049C78.9648 30.0995 78.9629 30.0763 78.9612 30.0712C78.8313 29.6935 78.7056 29.4182 78.5808 29.1646C78.519 29.0391 78.5108 28.8806 78.4865 28.7429C78.4863 28.7419 78.4861 28.741 78.486 28.74C78.4817 28.7162 78.4741 28.693 78.4645 28.6708C78.3009 28.2914 78.1664 28.045 78.0357 27.8165C78.0155 27.7812 77.9405 27.6634 77.9274 27.6249V27.6249C77.9264 27.6219 77.9216 27.6084 77.92 27.6057C77.7399 27.3015 77.6056 27.1367 77.4713 26.9719C76.356 25.7857 75.2408 24.5996 73.844 23.2721C73.7954 23.2258 73.7381 23.1889 73.6758 23.164C73.1677 22.9605 72.8601 22.8577 72.5747 22.7662C72.5353 22.7535 72.4504 22.7024 72.4301 22.6664V22.6664C72.4262 22.6595 72.4071 22.6298 72.4004 22.6257C72.0951 22.4393 71.8422 22.3461 71.597 22.2667C71.5488 22.2511 71.4273 22.2061 71.389 22.173V22.173C71.3825 22.1674 71.354 22.1447 71.3459 22.1422C70.6904 21.9462 70.1425 21.8465 69.6027 21.754C69.5512 21.7452 69.4369 21.7077 69.3996 21.6712V21.6712C69.3924 21.6642 69.3605 21.636 69.3509 21.6331C68.6901 21.4323 68.1354 21.3374 67.5876 21.2496C67.5384 21.2417 67.4424 21.2174 67.4071 21.1821V21.1821C67.4009 21.1759 67.373 21.15 67.3648 21.1467C66.8313 20.9375 66.4058 20.8403 65.9804 20.7432C65.9804 20.7432 65.8805 20.7283 65.7004 20.6522C65.6628 20.6363 65.6244 20.6219 65.5851 20.611C64.9746 20.4405 64.5293 20.345 64.0982 20.2559C64.049 20.2458 63.9495 20.2101 63.9162 20.1725V20.1725C63.9099 20.1652 63.8813 20.1358 63.8724 20.1322C63.3782 19.9328 62.9734 19.8375 62.5751 19.7499C62.5339 19.7408 62.4671 19.719 62.4446 19.6833V19.6833C62.4397 19.6755 62.4172 19.6436 62.4092 19.6391C62.1831 19.5122 61.989 19.4379 61.805 19.3802C61.6401 19.3284 61.4775 19.2687 61.3254 19.1866C57.6252 17.1888 55.01 13.1845 55.5597 9.76702C56.265 5.382 59.1014 2.70953 63.2687 1.5C70.3882 -0.566443 76.6067 1.51447 82.5278 5.56689C88.2126 9.45763 90.6927 15.4188 93.4285 21.2708C95.646 26.0139 97.8611 30.7583 100.037 35.5206C104.341 44.9397 111.386 51.7615 120.199 56.9268C125.284 59.9073 130.324 62.9188 134.157 67.5779C137.843 72.0581 140.564 77.0224 142.384 82.5179C143.989 87.361 144.477 92.3478 144.508 97.8423C144.533 107.365 144.543 116.453 144.554 125.541C144.892 129.691 145.103 133.856 145.608 137.984C146.054 141.632 146.904 145.229 147.446 148.868C148.964 159.04 153.734 167.894 158.652 176.681C163.479 185.303 168.549 193.793 173.235 202.491C177.671 210.724 180.686 219.55 182.822 228.645C183.756 232.62 184.296 236.688 185.109 241.127C185.291 243.866 185.379 246.193 185.467 248.52C185.471 248.955 185.476 249.39 185.5 250.262C185.142 255.623 184.765 260.554 184.388 265.481C184.383 265.537 184.365 265.647 184.329 265.69V265.69C184.322 265.698 184.295 265.733 184.292 265.743C184.117 266.394 184.007 266.97 183.912 267.527C183.849 267.904 183.763 268.276 183.65 268.64C182.527 272.257 181.451 275.89 180.253 279.483C178.185 285.689 174.933 291.244 170.82 296.319C168.861 298.737 167.009 301.241 164.91 303.928C164.656 304.231 164.539 304.381 164.444 304.505C164.424 304.532 164.366 304.597 164.334 304.61V304.61C164.33 304.612 164.313 304.619 164.309 304.622C164.132 304.769 164.031 304.886 163.943 304.999C163.919 305.029 163.868 305.094 163.833 305.109V305.109C163.829 305.111 163.809 305.119 163.805 305.123C163.635 305.267 163.535 305.382 163.449 305.491C163.422 305.526 163.367 305.596 163.326 305.613V305.613C163.321 305.614 163.302 305.623 163.298 305.626C163.217 305.685 163.15 305.739 163.091 305.79C162.893 305.96 162.68 306.121 162.5 306.31C162.46 306.353 162.414 306.403 162.361 306.463C162.143 306.727 162.034 306.874 161.942 307.002C161.921 307.031 161.871 307.096 161.837 307.109V307.109C161.833 307.111 161.814 307.119 161.811 307.122C161.634 307.269 161.532 307.387 161.443 307.499C161.421 307.528 161.37 307.591 161.336 307.605V307.605C161.331 307.607 161.311 307.616 161.307 307.619C161.136 307.762 161.037 307.878 160.952 307.988C160.927 308.022 160.876 308.083 160.836 308.097V308.097C160.829 308.099 160.802 308.109 160.797 308.114C160.642 308.242 160.549 308.35 160.472 308.453C160.441 308.496 160.353 308.568 160.3 308.573V308.573C160.288 308.574 160.239 308.583 160.23 308.59C159.033 309.557 158.006 310.507 156.984 311.457C156.938 311.5 156.867 311.554 156.804 311.552V311.552C156.79 311.552 156.735 311.553 156.722 311.559C155.997 311.884 155.441 312.218 154.885 312.552Z" fill="url(#paint0_linear_312_35)"/>
</g>
<defs>
<filter id="filter0_d_312_35" x="0.5" y="0.690308" width="189" height="336.988" filterUnits="userSpaceOnUse" color-interpolation-filters="sRGB">
<feFlood flood-opacity="0" result="BackgroundImageFix"/>
<feColorMatrix in="SourceAlpha" type="matrix" values="0 0 0 0 0 0 0 0 0 0 0 0 0 0 0 0 0 0 127 0" result="hardAlpha"/>
<feOffset dy="4"/>
<feGaussianBlur stdDeviation="2"/>
<feComposite in2="hardAlpha" operator="out"/>
<feColorMatrix type="matrix" values="0 0 0 0 0 0 0 0 0 0 0 0 0 0 0 0 0 0 0.25 0"/>
<feBlend mode="normal" in2="BackgroundImageFix" result="effect1_dropShadow_312_35"/>
<feBlend mode="normal" in="SourceGraphic" in2="effect1_dropShadow_312_35" result="shape"/>
</filter>
<linearGradient id="paint0_linear_312_35" x1="87.5" y1="-4.00001" x2="251.584" y2="378.225" gradientUnits="userSpaceOnUse">
<stop stop-color="white"/>
<stop offset="1" stop-color="#F6FFBC"/>
</linearGradient>
</defs>
</svg>
